<mxfile host="Electron" agent="Mozilla/5.0 (Macintosh; Intel Mac OS X 10_15_7) AppleWebKit/537.36 (KHTML, like Gecko) draw.io/24.7.17 Chrome/128.0.6613.36 Electron/32.0.1 Safari/537.36" version="24.7.17">
  <diagram name="Page-1" id="WLKqxN7QjUjL1MA5BJnh">
    <mxGraphModel dx="1509" dy="834" grid="1" gridSize="10" guides="1" tooltips="1" connect="1" arrows="1" fold="1" page="1" pageScale="1" pageWidth="850" pageHeight="1100" math="0" shadow="0">
      <root>
        <mxCell id="0" />
        <mxCell id="1" parent="0" />
        <mxCell id="pKzOqkrDxvqWZHLKARYX-1" value="Facilities" style="rounded=0;whiteSpace=wrap;html=1;verticalAlign=top;align=left;" vertex="1" parent="1">
          <mxGeometry x="40" y="40" width="240" height="300" as="geometry" />
        </mxCell>
        <mxCell id="pKzOqkrDxvqWZHLKARYX-3" value="ListView" style="rounded=0;whiteSpace=wrap;html=1;verticalAlign=top;align=left;" vertex="1" parent="1">
          <mxGeometry x="50" y="70" width="210" height="260" as="geometry" />
        </mxCell>
        <mxCell id="pKzOqkrDxvqWZHLKARYX-6" value="" style="group" vertex="1" connectable="0" parent="1">
          <mxGeometry x="60" y="110" width="180" height="50" as="geometry" />
        </mxCell>
        <mxCell id="pKzOqkrDxvqWZHLKARYX-4" value="Facility" style="rounded=0;whiteSpace=wrap;html=1;verticalAlign=top;align=left;" vertex="1" parent="pKzOqkrDxvqWZHLKARYX-6">
          <mxGeometry width="180" height="50" as="geometry" />
        </mxCell>
        <mxCell id="pKzOqkrDxvqWZHLKARYX-5" value="Manage" style="rounded=0;whiteSpace=wrap;html=1;" vertex="1" parent="pKzOqkrDxvqWZHLKARYX-6">
          <mxGeometry x="80" y="20" width="90" height="20" as="geometry" />
        </mxCell>
        <mxCell id="pKzOqkrDxvqWZHLKARYX-7" value="" style="group" vertex="1" connectable="0" parent="1">
          <mxGeometry x="60" y="175" width="180" height="50" as="geometry" />
        </mxCell>
        <mxCell id="pKzOqkrDxvqWZHLKARYX-8" value="Facility" style="rounded=0;whiteSpace=wrap;html=1;verticalAlign=top;align=left;" vertex="1" parent="pKzOqkrDxvqWZHLKARYX-7">
          <mxGeometry width="180" height="50" as="geometry" />
        </mxCell>
        <mxCell id="pKzOqkrDxvqWZHLKARYX-9" value="Manage" style="rounded=0;whiteSpace=wrap;html=1;" vertex="1" parent="pKzOqkrDxvqWZHLKARYX-7">
          <mxGeometry x="80" y="20" width="90" height="20" as="geometry" />
        </mxCell>
        <mxCell id="pKzOqkrDxvqWZHLKARYX-12" value="" style="group" vertex="1" connectable="0" parent="1">
          <mxGeometry x="60" y="240" width="180" height="50" as="geometry" />
        </mxCell>
        <mxCell id="pKzOqkrDxvqWZHLKARYX-13" value="Facility" style="rounded=0;whiteSpace=wrap;html=1;verticalAlign=top;align=left;" vertex="1" parent="pKzOqkrDxvqWZHLKARYX-12">
          <mxGeometry width="180" height="50" as="geometry" />
        </mxCell>
        <mxCell id="pKzOqkrDxvqWZHLKARYX-14" value="Manage" style="rounded=0;whiteSpace=wrap;html=1;" vertex="1" parent="pKzOqkrDxvqWZHLKARYX-12">
          <mxGeometry x="80" y="20" width="90" height="20" as="geometry" />
        </mxCell>
        <mxCell id="pKzOqkrDxvqWZHLKARYX-16" value="Vendors" style="rounded=0;whiteSpace=wrap;html=1;verticalAlign=top;align=left;" vertex="1" parent="1">
          <mxGeometry x="350" y="40" width="240" height="300" as="geometry" />
        </mxCell>
        <mxCell id="pKzOqkrDxvqWZHLKARYX-17" value="ListView" style="rounded=0;whiteSpace=wrap;html=1;verticalAlign=top;align=left;" vertex="1" parent="1">
          <mxGeometry x="360" y="70" width="210" height="260" as="geometry" />
        </mxCell>
        <mxCell id="pKzOqkrDxvqWZHLKARYX-21" value="" style="group" vertex="1" connectable="0" parent="1">
          <mxGeometry x="370" y="175" width="180" height="50" as="geometry" />
        </mxCell>
        <mxCell id="pKzOqkrDxvqWZHLKARYX-22" value="Vendor" style="rounded=0;whiteSpace=wrap;html=1;verticalAlign=top;align=left;" vertex="1" parent="pKzOqkrDxvqWZHLKARYX-21">
          <mxGeometry width="180" height="50" as="geometry" />
        </mxCell>
        <mxCell id="pKzOqkrDxvqWZHLKARYX-23" value="Manage" style="rounded=0;whiteSpace=wrap;html=1;fillColor=#60a917;fontColor=#ffffff;strokeColor=#2D7600;" vertex="1" parent="pKzOqkrDxvqWZHLKARYX-21">
          <mxGeometry x="80" y="20" width="90" height="20" as="geometry" />
        </mxCell>
        <mxCell id="pKzOqkrDxvqWZHLKARYX-24" value="" style="group" vertex="1" connectable="0" parent="1">
          <mxGeometry x="370" y="240" width="180" height="50" as="geometry" />
        </mxCell>
        <mxCell id="pKzOqkrDxvqWZHLKARYX-25" value="Vendor" style="rounded=0;whiteSpace=wrap;html=1;verticalAlign=top;align=left;" vertex="1" parent="pKzOqkrDxvqWZHLKARYX-24">
          <mxGeometry width="180" height="50" as="geometry" />
        </mxCell>
        <mxCell id="pKzOqkrDxvqWZHLKARYX-26" value="Manage" style="rounded=0;whiteSpace=wrap;html=1;fillColor=#60a917;fontColor=#ffffff;strokeColor=#2D7600;" vertex="1" parent="pKzOqkrDxvqWZHLKARYX-24">
          <mxGeometry x="80" y="20" width="90" height="20" as="geometry" />
        </mxCell>
        <mxCell id="pKzOqkrDxvqWZHLKARYX-33" value="Create" style="rounded=0;whiteSpace=wrap;html=1;" vertex="1" parent="1">
          <mxGeometry x="180" y="80" width="60" height="20" as="geometry" />
        </mxCell>
        <mxCell id="pKzOqkrDxvqWZHLKARYX-34" value="Create" style="rounded=0;whiteSpace=wrap;html=1;fillColor=#a20025;fontColor=#ffffff;strokeColor=#6F0000;" vertex="1" parent="1">
          <mxGeometry x="490" y="80" width="60" height="20" as="geometry" />
        </mxCell>
        <mxCell id="pKzOqkrDxvqWZHLKARYX-35" value="Vendors &amp;gt; Vendor A" style="rounded=0;whiteSpace=wrap;html=1;verticalAlign=top;align=left;" vertex="1" parent="1">
          <mxGeometry x="350" y="380" width="240" height="300" as="geometry" />
        </mxCell>
        <mxCell id="pKzOqkrDxvqWZHLKARYX-36" value="" style="rounded=0;whiteSpace=wrap;html=1;verticalAlign=top;align=left;" vertex="1" parent="1">
          <mxGeometry x="365" y="410" width="210" height="260" as="geometry" />
        </mxCell>
        <mxCell id="pKzOqkrDxvqWZHLKARYX-37" value="Contracts" style="rounded=0;whiteSpace=wrap;html=1;verticalAlign=top;align=left;" vertex="1" parent="1">
          <mxGeometry x="365" y="410" width="65" height="20" as="geometry" />
        </mxCell>
        <mxCell id="pKzOqkrDxvqWZHLKARYX-38" value="Invoices" style="rounded=0;whiteSpace=wrap;html=1;verticalAlign=top;align=left;" vertex="1" parent="1">
          <mxGeometry x="430" y="410" width="55" height="20" as="geometry" />
        </mxCell>
        <mxCell id="pKzOqkrDxvqWZHLKARYX-39" value="Users" style="rounded=0;whiteSpace=wrap;html=1;verticalAlign=top;align=left;" vertex="1" parent="1">
          <mxGeometry x="485" y="410" width="55" height="20" as="geometry" />
        </mxCell>
        <mxCell id="pKzOqkrDxvqWZHLKARYX-40" value="Facilities &amp;gt; Vendor A" style="rounded=0;whiteSpace=wrap;html=1;verticalAlign=top;align=left;" vertex="1" parent="1">
          <mxGeometry x="40" y="380" width="240" height="300" as="geometry" />
        </mxCell>
        <mxCell id="pKzOqkrDxvqWZHLKARYX-41" value="" style="rounded=0;whiteSpace=wrap;html=1;verticalAlign=top;align=left;" vertex="1" parent="1">
          <mxGeometry x="55" y="410" width="210" height="260" as="geometry" />
        </mxCell>
        <mxCell id="pKzOqkrDxvqWZHLKARYX-42" value="Vendor Info" style="rounded=0;whiteSpace=wrap;html=1;verticalAlign=top;align=left;" vertex="1" parent="1">
          <mxGeometry x="55" y="410" width="75" height="20" as="geometry" />
        </mxCell>
        <mxCell id="pKzOqkrDxvqWZHLKARYX-43" value="Jobs" style="rounded=0;whiteSpace=wrap;html=1;verticalAlign=top;align=left;" vertex="1" parent="1">
          <mxGeometry x="127.5" y="410" width="55" height="20" as="geometry" />
        </mxCell>
        <mxCell id="pKzOqkrDxvqWZHLKARYX-44" value="Users" style="rounded=0;whiteSpace=wrap;html=1;verticalAlign=top;align=left;" vertex="1" parent="1">
          <mxGeometry x="175" y="410" width="55" height="20" as="geometry" />
        </mxCell>
        <mxCell id="pKzOqkrDxvqWZHLKARYX-48" style="edgeStyle=orthogonalEdgeStyle;rounded=0;orthogonalLoop=1;jettySize=auto;html=1;entryX=0;entryY=0.5;entryDx=0;entryDy=0;fillColor=#a20025;strokeColor=#6F0000;" edge="1" parent="1" source="pKzOqkrDxvqWZHLKARYX-46" target="pKzOqkrDxvqWZHLKARYX-47">
          <mxGeometry relative="1" as="geometry" />
        </mxCell>
        <mxCell id="pKzOqkrDxvqWZHLKARYX-52" style="edgeStyle=orthogonalEdgeStyle;rounded=0;orthogonalLoop=1;jettySize=auto;html=1;entryX=0;entryY=0.5;entryDx=0;entryDy=0;fillColor=#a20025;strokeColor=#6F0000;" edge="1" parent="1" source="pKzOqkrDxvqWZHLKARYX-46" target="pKzOqkrDxvqWZHLKARYX-51">
          <mxGeometry relative="1" as="geometry" />
        </mxCell>
        <mxCell id="pKzOqkrDxvqWZHLKARYX-46" value="Admin" style="shape=umlActor;verticalLabelPosition=bottom;verticalAlign=top;html=1;outlineConnect=0;fillColor=#a20025;fontColor=#ffffff;strokeColor=#6F0000;" vertex="1" parent="1">
          <mxGeometry x="350" y="740" width="30" height="60" as="geometry" />
        </mxCell>
        <mxCell id="pKzOqkrDxvqWZHLKARYX-66" style="edgeStyle=orthogonalEdgeStyle;rounded=0;orthogonalLoop=1;jettySize=auto;html=1;entryX=1;entryY=0.5;entryDx=0;entryDy=0;fillColor=#a20025;strokeColor=#6F0000;" edge="1" parent="1" source="pKzOqkrDxvqWZHLKARYX-47" target="pKzOqkrDxvqWZHLKARYX-34">
          <mxGeometry relative="1" as="geometry">
            <Array as="points">
              <mxPoint x="750" y="780" />
              <mxPoint x="750" y="90" />
            </Array>
          </mxGeometry>
        </mxCell>
        <mxCell id="pKzOqkrDxvqWZHLKARYX-47" value="Create Vendor" style="rounded=0;whiteSpace=wrap;html=1;fillColor=#a20025;fontColor=#ffffff;strokeColor=#6F0000;" vertex="1" parent="1">
          <mxGeometry x="432.5" y="750" width="137.5" height="40" as="geometry" />
        </mxCell>
        <mxCell id="pKzOqkrDxvqWZHLKARYX-56" style="edgeStyle=orthogonalEdgeStyle;rounded=0;orthogonalLoop=1;jettySize=auto;html=1;entryX=0;entryY=0.5;entryDx=0;entryDy=0;fillColor=#008a00;strokeColor=#005700;" edge="1" parent="1" source="pKzOqkrDxvqWZHLKARYX-50" target="pKzOqkrDxvqWZHLKARYX-55">
          <mxGeometry relative="1" as="geometry" />
        </mxCell>
        <mxCell id="pKzOqkrDxvqWZHLKARYX-50" value="User" style="shape=umlActor;verticalLabelPosition=bottom;verticalAlign=top;html=1;outlineConnect=0;fillColor=#008a00;fontColor=#ffffff;strokeColor=#005700;" vertex="1" parent="1">
          <mxGeometry x="340" y="940" width="30" height="60" as="geometry" />
        </mxCell>
        <mxCell id="pKzOqkrDxvqWZHLKARYX-51" value="Add Users as VendorManager or VendorFreelancer" style="rounded=0;whiteSpace=wrap;html=1;fillColor=#a20025;fontColor=#ffffff;strokeColor=#6F0000;" vertex="1" parent="1">
          <mxGeometry x="432.5" y="810" width="137.5" height="60" as="geometry" />
        </mxCell>
        <mxCell id="pKzOqkrDxvqWZHLKARYX-61" value="" style="edgeStyle=orthogonalEdgeStyle;rounded=0;orthogonalLoop=1;jettySize=auto;html=1;fillColor=#008a00;strokeColor=#005700;" edge="1" parent="1" source="pKzOqkrDxvqWZHLKARYX-55" target="pKzOqkrDxvqWZHLKARYX-60">
          <mxGeometry relative="1" as="geometry" />
        </mxCell>
        <mxCell id="pKzOqkrDxvqWZHLKARYX-55" value="Log in" style="ellipse;whiteSpace=wrap;html=1;fillColor=#008a00;fontColor=#ffffff;strokeColor=#005700;" vertex="1" parent="1">
          <mxGeometry x="410" y="950" width="60" height="40" as="geometry" />
        </mxCell>
        <mxCell id="pKzOqkrDxvqWZHLKARYX-62" style="edgeStyle=orthogonalEdgeStyle;rounded=0;orthogonalLoop=1;jettySize=auto;html=1;entryX=1;entryY=0.5;entryDx=0;entryDy=0;exitX=1;exitY=0.5;exitDx=0;exitDy=0;fillColor=#008a00;strokeColor=#005700;" edge="1" parent="1" source="pKzOqkrDxvqWZHLKARYX-60" target="pKzOqkrDxvqWZHLKARYX-16">
          <mxGeometry relative="1" as="geometry" />
        </mxCell>
        <mxCell id="pKzOqkrDxvqWZHLKARYX-60" value="Visits Vendor Page" style="whiteSpace=wrap;html=1;fillColor=#008a00;fontColor=#ffffff;strokeColor=#005700;" vertex="1" parent="1">
          <mxGeometry x="520" y="940" width="120" height="60" as="geometry" />
        </mxCell>
        <mxCell id="pKzOqkrDxvqWZHLKARYX-19" value="Vendor" style="rounded=0;whiteSpace=wrap;html=1;verticalAlign=top;align=left;" vertex="1" parent="1">
          <mxGeometry x="370" y="110" width="180" height="50" as="geometry" />
        </mxCell>
        <mxCell id="pKzOqkrDxvqWZHLKARYX-20" value="Manage" style="rounded=0;whiteSpace=wrap;html=1;fillColor=#60a917;fontColor=#ffffff;strokeColor=#2D7600;" vertex="1" parent="1">
          <mxGeometry x="450" y="130" width="90" height="20" as="geometry" />
        </mxCell>
        <mxCell id="pKzOqkrDxvqWZHLKARYX-65" style="edgeStyle=orthogonalEdgeStyle;rounded=0;orthogonalLoop=1;jettySize=auto;html=1;fontColor=#00FF00;strokeColor=#00FF00;" edge="1" parent="1" source="pKzOqkrDxvqWZHLKARYX-64" target="pKzOqkrDxvqWZHLKARYX-20">
          <mxGeometry relative="1" as="geometry" />
        </mxCell>
        <mxCell id="pKzOqkrDxvqWZHLKARYX-64" value="&lt;span style=&quot;font-size: 8px;&quot;&gt;currentUser.Id == Vendor.VendorManagerId&lt;/span&gt;" style="text;html=1;align=center;verticalAlign=middle;whiteSpace=wrap;rounded=0;fontColor=#00ff00;" vertex="1" parent="1">
          <mxGeometry x="580" y="125" width="70" height="30" as="geometry" />
        </mxCell>
        <mxCell id="pKzOqkrDxvqWZHLKARYX-67" value="" style="verticalLabelPosition=bottom;shadow=0;dashed=0;align=center;html=1;verticalAlign=top;strokeWidth=1;shape=mxgraph.mockup.misc.mail2;strokeColor=#999999;" vertex="1" parent="1">
          <mxGeometry x="710" y="830" width="40" height="20" as="geometry" />
        </mxCell>
        <mxCell id="pKzOqkrDxvqWZHLKARYX-68" style="edgeStyle=orthogonalEdgeStyle;rounded=0;orthogonalLoop=1;jettySize=auto;html=1;entryX=0.078;entryY=0.721;entryDx=0;entryDy=0;entryPerimeter=0;" edge="1" parent="1" source="pKzOqkrDxvqWZHLKARYX-51" target="pKzOqkrDxvqWZHLKARYX-67">
          <mxGeometry relative="1" as="geometry">
            <mxPoint x="720" y="840" as="targetPoint" />
          </mxGeometry>
        </mxCell>
      </root>
    </mxGraphModel>
  </diagram>
</mxfile>
